<svg xmlns="http://www.w3.org/2000/svg" style="display: none;"><symbol id="impresora" viewBox="0 0 60 60"><title>impresora</title><path id="Shape" d="m36 18.414v4.586h4.586z"/><path id="Shape" d="m42 25h-6c-1.1045695 0-2-.8954305-2-2v-6h-15c-.5522847 0-1 .4477153-1 1v15h24zm-15-5h4c.5522847 0 1 .4477153 1 1s-.4477153 1-1 1h-4c-.5522847 0-1-.4477153-1-1s.4477153-1 1-1zm-6 0h2c.5522847 0 1 .4477153 1 1s-.4477153 1-1 1h-2c-.5522847 0-1-.4477153-1-1s.4477153-1 1-1zm0 4h10c.5522847 0 1 .4477153 1 1s-.4477153 1-1 1h-10c-.5522847 0-1-.4477153-1-1s.4477153-1 1-1zm6 6h-6c-.5522847 0-1-.4477153-1-1s.4477153-1 1-1h6c.5522847 0 1 .4477153 1 1s-.4477153 1-1 1zm12 0h-8c-.5522847 0-1-.4477153-1-1s.4477153-1 1-1h8c.5522847 0 1 .4477153 1 1s-.4477153 1-1 1z"/><path id="Shape" d="m20 60h20c1.1045695 0 2-.8954305 2-2v-5h-24v5c0 1.1045695.8954305 2 2 2z"/><path id="Shape" d="m14.009 55h1.991v-2c-.5522847 0-1-.4477153-1-1s.4477153-1 1-1h28c.5522847 0 1 .4477153 1 1s-.4477153 1-1 1v2h2v-6h-31.938z"/><path id="Shape" d="m50 35h-40c-1.65685425 0-3 1.3431458-3 3v14c0 1.6568542 1.34314575 3 3 3h2v-6c.0186333-1.121036.9409175-2.0155891 2.062-2h31.875c1.1214705-.0161459 2.044368.8785681 2.063 2v6h2c1.6568542 0 3-1.3431458 3-3v-14c0-1.6568542-1.3431458-3-3-3zm-13 6h-1c-.5522847 0-1-.4477153-1-1s.4477153-1 1-1h1c.5522847 0 1 .4477153 1 1s-.4477153 1-1 1zm5 0h-1c-.5522847 0-1-.4477153-1-1s.4477153-1 1-1h1c.5522847 0 1 .4477153 1 1s-.4477153 1-1 1zm6 2c-1.6568542 0-3-1.3431458-3-3s1.3431458-3 3-3 3 1.3431458 3 3-1.3431458 3-3 3z"/><circle id="Oval" cx="48" cy="40" r="1"/><path id="Shape" d="m44 0c-.5522847 0-1 .44771525-1 1s.4477153 1 1 1c7.7285595.00826732 13.9917327 6.27144053 14 14 0 .5522847.4477153 1 1 1s1-.4477153 1-1c-.0104696-8.8322157-7.1677843-15.98953038-16-16z"/><path id="Shape" d="m44 4c-.5522847 0-1 .44771525-1 1s.4477153 1 1 1c5.5203344.00606237 9.9939376 4.4796656 10 10 0 .5522847.4477153 1 1 1s1-.4477153 1-1c-.0071648-6.62444695-5.375553-11.99283515-12-12z"/><path id="Shape" d="m44 8c-.5522847 0-1 .44771525-1 1s.4477153 1 1 1c3.3123376.0033074 5.9966926 2.6876624 6 6 0 .5522847.4477153 1 1 1s1-.4477153 1-1c-.0049599-4.4162219-3.5837781-7.99504012-8-8z"/><path id="Shape" d="m16 0c-8.8322157.01046962-15.98953038 7.1677843-16 16 0 .5522847.44771525 1 1 1s1-.4477153 1-1c.00826732-7.72855947 6.27144053-13.99173268 14-14 .5522847 0 1-.44771525 1-1s-.4477153-1-1-1z"/><path id="Shape" d="m16 4c-6.62444695.00716485-11.99283515 5.37555305-12 12 .00000001.5522847.44771526 1 1 1s.99999999-.4477153 1-1c.00606237-5.5203344 4.4796656-9.99393763 10-10 .5522847 0 1-.44771525 1-1s-.4477153-1-1-1z"/><path id="Shape" d="m16 8c-4.4162219.00495988-7.99504012 3.5837781-8 8 0 .5522847.44771525 1 1 1s1-.4477153 1-1c.0033074-3.3123376 2.6876624-5.9966926 6-6 .5522847 0 1-.44771525 1-1s-.4477153-1-1-1z"/></symbol><symbol id="camara-de-vigilancia" viewBox="0 0 63.973 63.973"><title>camara-de-vigilancia</title><path d="M17.19,18.122C17.191,18.122,17.191,18.122,17.19,18.122c1.078,1.074,2.163,2.3,3.224,3.644 c6.197,7.854,9.966,12.059,13.008,14.511c0.002,0.002,0.004,0.003,0.006,0.005c0.01,0.008,0.021,0.015,0.031,0.022 c3.977,3.194,6.623,3.174,10.102,2.008c4.146-1.387,18.488-10.722,20.412-11.98c-0.141-0.173-0.234-0.384-0.234-0.624 c0-10.786-6.881-19.563-15.354-19.62L11.8,14.093C13.54,14.937,15.34,16.279,17.19,18.122C17.19,18.121,17.19,18.121,17.19,18.122 z M58.129,19.896c1.877,0,3.404,1.527,3.404,3.405s-1.527,3.405-3.404,3.405c-1.879,0-3.406-1.527-3.406-3.405 S56.25,19.896,58.129,19.896z"/><circle cx="58.129" cy="23.301" r="1.405"/><path d="M14.502,18.348c-3.222-2.817-6.139-3.856-8.687-3.069c-3.334,1.027-5.27,5.021-5.704,7.294 c-0.465,2.417,0.479,7.324,3.726,9.201C5.592,25.121,9.604,20.106,14.502,18.348z"/><path d="M18.379,30.384c-2.729,0-5.033,4.064-5.033,8.875c0,4.811,2.306,8.875,5.033,8.875c2.729,0,5.033-4.064,5.033-8.875 C23.412,34.448,21.107,30.384,18.379,30.384z M21.962,38.727c0.047,0.621,0.358,6.1-2.965,7.449 c-0.123,0.049-0.25,0.072-0.376,0.072c-0.396,0-0.77-0.234-0.927-0.624c-0.208-0.513,0.039-1.095,0.551-1.304 c1.688-0.686,1.812-4.25,1.723-5.445c-0.041-0.55,0.372-1.029,0.923-1.07C21.438,37.768,21.921,38.176,21.962,38.727z"/><path d="M31.82,37.545c-3.103-2.584-6.905-6.848-12.978-14.542c-0.888-1.125-1.79-2.142-2.688-3.067 c-4.909,1.198-9.006,6.274-10.583,13.16c0.021,0.156,0.021,0.317-0.037,0.475c-0.026,0.068-0.066,0.129-0.104,0.188 c-0.36,1.787-0.551,3.635-0.551,5.502c0,10.975,8.169,18.625,15.5,18.625c0.646,0,1.264-0.084,1.865-0.205l2.648-0.994 c4.352-2.502,6.985-8.791,6.985-17.426C31.879,38.704,31.856,38.135,31.82,37.545z M18.379,50.135 c-3.944,0-7.033-4.777-7.033-10.875c0-6.099,3.089-10.875,7.033-10.875s7.033,4.777,7.033,10.875 C25.412,45.357,22.323,50.135,18.379,50.135z"/><path d="M39.833,41.033c-1.879,0-3.793-0.562-5.957-1.967c0,0.063,0.004,0.129,0.004,0.193c0,6.623-1.493,11.988-4.101,15.594 l25.14-9.428c4.865-2.635,8.248-9.117,8.748-16.509c-4.26,2.759-15.625,10.003-19.471,11.29 C42.694,40.71,41.27,41.033,39.833,41.033z"/></symbol><symbol id="virus" viewBox="0 -32 512 512"><title>virus</title><path d="m501.949219.121094h-93.539063c-5.550781 0-10.050781 4.496094-10.050781 10.046875s4.5 10.050781 10.050781 10.050781h83.492188v323.816406h-471.804688v-323.816406h308.925782c5.546874 0 10.046874-4.5 10.046874-10.050781s-4.5-10.046875-10.046874-10.046875h-318.972657c-5.550781 0-10.050781 4.496094-10.050781 10.046875v343.914062c0 5.550781 4.5 10.050781 10.050781 10.050781h198.324219c-.925781 15.425782-4.789062 45.648438-20.589844 64.148438h-85.292968c-5.550782 0-10.046876 4.5-10.046876 10.050781s4.496094 10.050781 10.046876 10.050781h302.878906c5.550781 0 10.050781-4.5 10.050781-10.050781s-4.5-10.050781-10.050781-10.050781h-79.828125c-15.796875-18.503906-19.660157-48.722656-20.585938-64.148438h196.992188c5.550781 0 10.050781-4.5 10.050781-10.050781v-343.914062c0-5.550781-4.5-10.046875-10.050781-10.046875zm-200.695313 428.164062h-89.179687c12.53125-22.367187 15.691406-49.605468 16.453125-64.152344h56.273437c.761719 14.546876 3.921875 41.785157 16.453125 64.152344zm0 0"/><path d="m477.179688 288.171875v-241.054687c0-5.550782-4.5-10.050782-10.046876-10.050782h-420.933593c-5.546875 0-10.046875 4.5-10.046875 10.050782v241.054687c0 5.550781 4.5 10.046875 10.046875 10.046875h420.933593c5.546876.003906 10.046876-4.496094 10.046876-10.046875zm-20.097657-10.050781h-400.832031v-220.957032h400.832031zm0 0"/><path d="m42.367188 311.304688c-5.144532 2.085937-7.617188 7.949218-5.53125 13.089843l.105468.25c1.585938 3.90625 5.34375 6.269531 9.3125 6.269531 1.261719 0 2.539063-.238281 3.78125-.738281 5.140625-2.089843 7.617188-7.953125 5.527344-13.09375l-.105469-.25c-2.089843-5.144531-7.949219-7.621093-13.089843-5.527343zm0 0"/><path d="m68.5 311.289062c-5.148438 2.074219-7.640625 7.925782-5.570312 13.074219l.101562.25c1.578125 3.921875 5.34375 6.300781 9.324219 6.300781 1.25 0 2.519531-.234374 3.75-.726562 5.148437-2.074219 7.640625-7.925781 5.570312-13.074219l-.101562-.25c-2.070313-5.148437-7.925781-7.644531-13.074219-5.574219zm0 0"/><path d="m94.605469 311.289062c-5.148438 2.074219-7.644531 7.925782-5.574219 13.074219l.101562.25c1.578126 3.921875 5.347657 6.300781 9.328126 6.300781 1.246093 0 2.515624-.234374 3.746093-.726562 5.148438-2.074219 7.644531-7.925781 5.570313-13.074219l-.097656-.25c-2.074219-5.148437-7.929688-7.644531-13.074219-5.574219zm0 0"/><path d="m236.46875 310.691406c-5.546875 0-10.046875 4.496094-10.046875 10.046875s4.5 10.050781 10.046875 10.050781h37.585938c5.546874 0 10.046874-4.5 10.046874-10.050781s-4.5-10.046875-10.046874-10.046875zm0 0"/><path d="m359.492188 14.042969c1.578124 3.914062 5.34375 6.292969 9.320312 6.292969 1.25 0 2.523438-.234376 3.753906-.734376 5.148438-2.074218 7.636719-7.929687 5.5625-13.078124l-.09375-.230469c-2.078125-5.148438-7.9375-7.636719-13.082031-5.558594-5.144531 2.074219-7.632813 7.929687-5.558594 13.078125zm0 0"/><path d="m307.914062 190.664062 15.828126.269532c.609374 4.488281 1.941406 8.804687 3.9375 12.820312-12.386719 6.765625-20.398438 19.65625-20.648438 34.265625-.089844 5.546875 4.332031 10.121094 9.878906 10.214844.058594.003906.117188.003906.175782.003906 5.46875 0 9.949218-4.390625 10.042968-9.878906.148438-8.726563 5.878906-16.21875 14.261719-18.648437l.113281-.035157c6.6875 4.601563 14.578125 7.152344 22.882813 7.292969.242187.003906.484375.003906.726562.003906 7.976563 0 15.625-2.238281 22.230469-6.417968 8.191406 2.761718 13.585938 10.390624 13.4375 19.054687-.089844 5.546875 4.332031 10.121094 9.878906 10.21875h.175782c5.46875 0 9.949218-4.386719 10.042968-9.878906.246094-14.46875-7.179687-27.515625-19.121094-34.738281 2.1875-4 3.699219-8.339844 4.472657-12.878907l15.828125.269531h.175781c5.46875 0 9.949219-4.386718 10.042969-9.878906.09375-5.550781-4.328125-10.125-9.875-10.21875l-17.660156-.300781c-2.679688-8.121094-7.78125-15.160156-14.472657-20.234375 3.746094-4.636719 6.0625-10.203125 6.703125-16.152344 15.550782-5.597656 26.015625-20.074218 26.300782-36.800781.089843-5.550781-4.332032-10.125-9.878907-10.21875-.058593 0-.117187 0-.175781 0-5.46875 0-9.949219 4.386719-10.042969 9.878906-.125 7.445313-4.328125 13.984375-10.769531 17.253907-5.414062-8.640626-14.949219-14.472657-25.886719-14.65625-10.960937-.175782-20.699219 5.34375-26.402343 13.816406-6.375-3.472656-10.390626-10.175782-10.265626-17.660156.09375-5.550782-4.328124-10.125-9.875-10.21875-.058593 0-.117187 0-.175781 0-5.46875 0-9.949219 4.386718-10.042969 9.878906-.285156 16.773437 9.734376 31.628906 25.160157 37.722656.445312 5.949219 2.570312 11.574219 6.148437 16.324219-6.859375 4.847656-12.203125 11.707031-15.15625 19.730469l-17.65625-.300782c-.058594 0-.113281 0-.171875 0-5.472656 0-9.953125 4.386719-10.046875 9.878906-.089844 5.550782 4.332032 10.125 9.878906 10.21875zm56.8125 16.207032c-5.777343-.097656-11.171874-2.4375-15.191406-6.59375-4.015625-4.15625-6.175781-9.628906-6.078125-15.410156.199219-11.808594 9.871094-21.273438 21.632813-21.273438.125 0 .25 0 .371094.003906 11.933593.203125 21.472656 10.074219 21.269531 22.003906-.09375 5.726563-2.402344 11.074219-6.488281 15.078126-.9375.554687-1.792969 1.257812-2.515626 2.097656-3.769531 2.722656-8.292968 4.179687-13 4.09375zm1.261719-85.503906c.066407 0 .128907 0 .191407.003906 6.101562.101562 10.980468 5.152344 10.878906 11.253906-.105469 6.101562-5.160156 11.003906-11.253906 10.875-2.957032-.046875-5.714844-1.246094-7.769532-3.371094-2.054687-2.125-3.160156-4.925781-3.109375-7.878906.105469-6.039062 5.050781-10.882812 11.0625-10.882812zm0 0"/><path d="m79.636719 266.0625h172.175781c5.550781 0 10.050781-4.496094 10.050781-10.046875v-176.863281c0-5.550782-4.5-10.050782-10.050781-10.050782h-172.175781c-5.546875 0-10.046875 4.5-10.046875 10.050782v176.863281c0 5.550781 4.5 10.046875 10.046875 10.046875zm10.050781-20.097656v-98.890625h152.074219v98.890625zm0-156.765625h152.074219v37.777343h-152.074219zm0 0"/><path d="m128.210938 98.039062h-22.109376c-5.550781 0-10.050781 4.5-10.050781 10.050782 0 5.550781 4.5 10.046875 10.050781 10.046875h22.109376c5.546874 0 10.046874-4.496094 10.046874-10.046875 0-5.550782-4.5-10.050782-10.046874-10.050782zm0 0"/><path d="m213.960938 155.980469h-107.859376c-5.550781 0-10.050781 4.496093-10.050781 10.046875 0 5.550781 4.5 10.050781 10.050781 10.050781h107.859376c5.550781 0 10.050781-4.5 10.050781-10.050781 0-5.550782-4.5-10.046875-10.050781-10.046875zm0 0"/><path d="m106.101562 207.109375h70.34375c5.546876 0 10.046876-4.5 10.046876-10.050781 0-5.546875-4.5-10.046875-10.046876-10.046875h-70.34375c-5.550781 0-10.050781 4.5-10.050781 10.046875 0 5.550781 4.5 10.050781 10.050781 10.050781zm0 0"/><path d="m199.222656 217.058594h-93.121094c-5.550781 0-10.050781 4.5-10.050781 10.050781 0 5.546875 4.5 10.046875 10.050781 10.046875h93.121094c5.546875 0 10.046875-4.5 10.046875-10.046875 0-5.550781-4.5-10.050781-10.046875-10.050781zm0 0"/><path d="m177.460938 104.207031c-2.078126-5.144531-7.933594-7.628906-13.082032-5.550781-5.144531 2.082031-7.632812 7.9375-5.550781 13.082031l.09375.230469c1.582031 3.910156 5.34375 6.285156 9.320313 6.285156 1.253906 0 2.527343-.234375 3.761718-.734375 5.144532-2.078125 7.628906-7.9375 5.550782-13.082031zm0 0"/></symbol><symbol id="programacion" viewBox="0 0 512 512"><title>programacion</title><g> <g> <path d="M0,15.845v420.259h164.332v30.049h-30.036v30.001h243.407v-30.001h-30.036v-30.049H512V15.845H0z M317.665,466.153 H194.334v-30.049h123.332V466.153z M481.999,406.103H30.001v-60.075h451.997V406.103z M481.999,316.027H30.001V45.847h451.997 V316.027z"/> </g> </g><g> <g> <polygon points="203.943,126.712 182.729,105.498 107.29,180.937 182.729,256.375 203.943,235.161 149.718,180.937 "/> </g> </g><g> <g> <polygon points="329.271,105.498 308.057,126.712 362.282,180.937 308.057,235.161 329.271,256.375 404.709,180.937 "/> </g> </g><g> <g> <rect x="166.742" y="165.947" transform="matrix(0.1951 -0.9808 0.9808 0.1951 28.5815 396.7237)" width="178.511" height="30.002"/> </g> </g></symbol><symbol id="la-computacion-en-nube" viewBox="-63 1 479 479.99991"><title>la-computacion-en-nube</title><path d="m352.5 144c-.039062-35.328125-28.671875-63.960938-64-64h-24.359375c-4.140625-45.3125-42.136719-80-87.640625-80s-83.5 34.6875-87.640625 80h-24.359375c-35.347656 0-64 28.652344-64 64s28.652344 64 64 64h88v-16h-88c-26.507812 0-48-21.492188-48-48s21.492188-48 48-48h40v-8c0-39.765625 32.234375-72 72-72s72 32.234375 72 72v8h40c26.507812 0 48 21.492188 48 48s-21.492188 48-48 48h-88v16h88c35.328125-.039062 63.960938-28.671875 64-64zm0 0"/><path d="m320.5 456v-136c-.015625-13.25-10.75-23.984375-24-24h-16v-17.472656c10.527344-3.703125 17.101562-14.1875 15.847656-25.277344s-10.007812-19.84375-21.097656-21.097656-21.574219 5.320312-25.277344 15.847656h-65.472656v-100.6875l18.34375 18.34375 11.3125-11.3125-37.65625-37.65625-37.65625 37.65625 11.3125 11.3125 18.34375-18.34375v100.6875h-65.472656c-3.703125-10.527344-14.1875-17.105469-25.277344-15.847656-11.089844 1.253906-19.84375 10.003906-21.097656 21.09375s5.320312 21.578125 15.847656 25.277344v25.476562h-48c-13.25.015625-23.984375 10.75-24 24v96c.015625 13.25 10.75 23.984375 24 24h48v16h-24v16h64v-16h-24v-16h48c13.25-.015625 23.984375-10.75 24-24v-96c-.015625-13.25-10.75-23.984375-24-24h-48v-25.472656c6.777344-2.417969 12.109375-7.75 14.527344-14.527344h146.945312c2.417969 6.777344 7.75 12.109375 14.527344 14.523438v17.476562h-48c-13.25.015625-23.984375 10.75-24 24v136c.015625 13.25 10.75 23.984375 24 24h80c13.25-.015625 23.984375-10.75 24-24zm-176-32c-.003906 4.417969-3.582031 7.996094-8 8h-112c-4.417969-.003906-7.996094-3.582031-8-8v-16h128zm-8-104c4.417969.003906 7.996094 3.582031 8 8v64h-128v-64c.003906-4.417969 3.582031-7.996094 8-8zm-56-56c-4.417969 0-8-3.582031-8-8s3.582031-8 8-8 8 3.582031 8 8c-.003906 4.417969-3.582031 7.996094-8 8zm192-16c4.417969 0 8 3.582031 8 8s-3.582031 8-8 8-8-3.582031-8-8c.003906-4.417969 3.582031-7.996094 8-8zm-64 72c.003906-4.417969 3.582031-7.996094 8-8h80c4.417969.003906 7.996094 3.582031 8 8v104h-96zm0 136v-16h96v16c-.003906 4.417969-3.582031 7.996094-8 8h-80c-4.417969-.003906-7.996094-3.582031-8-8zm0 0"/></symbol></svg>