<svg height="512" viewBox="0 0 60 60" width="512" xmlns="http://www.w3.org/2000/svg"><g id="Page-1" fill="none" fill-rule="evenodd"><g id="045---Wireless-Printer" fill="rgb(0,0,0)" fill-rule="nonzero"><path id="Shape" d="m36 18.414v4.586h4.586z"/><path id="Shape" d="m42 25h-6c-1.1045695 0-2-.8954305-2-2v-6h-15c-.5522847 0-1 .4477153-1 1v15h24zm-15-5h4c.5522847 0 1 .4477153 1 1s-.4477153 1-1 1h-4c-.5522847 0-1-.4477153-1-1s.4477153-1 1-1zm-6 0h2c.5522847 0 1 .4477153 1 1s-.4477153 1-1 1h-2c-.5522847 0-1-.4477153-1-1s.4477153-1 1-1zm0 4h10c.5522847 0 1 .4477153 1 1s-.4477153 1-1 1h-10c-.5522847 0-1-.4477153-1-1s.4477153-1 1-1zm6 6h-6c-.5522847 0-1-.4477153-1-1s.4477153-1 1-1h6c.5522847 0 1 .4477153 1 1s-.4477153 1-1 1zm12 0h-8c-.5522847 0-1-.4477153-1-1s.4477153-1 1-1h8c.5522847 0 1 .4477153 1 1s-.4477153 1-1 1z"/><path id="Shape" d="m20 60h20c1.1045695 0 2-.8954305 2-2v-5h-24v5c0 1.1045695.8954305 2 2 2z"/><path id="Shape" d="m14.009 55h1.991v-2c-.5522847 0-1-.4477153-1-1s.4477153-1 1-1h28c.5522847 0 1 .4477153 1 1s-.4477153 1-1 1v2h2v-6h-31.938z"/><path id="Shape" d="m50 35h-40c-1.65685425 0-3 1.3431458-3 3v14c0 1.6568542 1.34314575 3 3 3h2v-6c.0186333-1.121036.9409175-2.0155891 2.062-2h31.875c1.1214705-.0161459 2.044368.8785681 2.063 2v6h2c1.6568542 0 3-1.3431458 3-3v-14c0-1.6568542-1.3431458-3-3-3zm-13 6h-1c-.5522847 0-1-.4477153-1-1s.4477153-1 1-1h1c.5522847 0 1 .4477153 1 1s-.4477153 1-1 1zm5 0h-1c-.5522847 0-1-.4477153-1-1s.4477153-1 1-1h1c.5522847 0 1 .4477153 1 1s-.4477153 1-1 1zm6 2c-1.6568542 0-3-1.3431458-3-3s1.3431458-3 3-3 3 1.3431458 3 3-1.3431458 3-3 3z"/><circle id="Oval" cx="48" cy="40" r="1"/><path id="Shape" d="m44 0c-.5522847 0-1 .44771525-1 1s.4477153 1 1 1c7.7285595.00826732 13.9917327 6.27144053 14 14 0 .5522847.4477153 1 1 1s1-.4477153 1-1c-.0104696-8.8322157-7.1677843-15.98953038-16-16z"/><path id="Shape" d="m44 4c-.5522847 0-1 .44771525-1 1s.4477153 1 1 1c5.5203344.00606237 9.9939376 4.4796656 10 10 0 .5522847.4477153 1 1 1s1-.4477153 1-1c-.0071648-6.62444695-5.375553-11.99283515-12-12z"/><path id="Shape" d="m44 8c-.5522847 0-1 .44771525-1 1s.4477153 1 1 1c3.3123376.0033074 5.9966926 2.6876624 6 6 0 .5522847.4477153 1 1 1s1-.4477153 1-1c-.0049599-4.4162219-3.5837781-7.99504012-8-8z"/><path id="Shape" d="m16 0c-8.8322157.01046962-15.98953038 7.1677843-16 16 0 .5522847.44771525 1 1 1s1-.4477153 1-1c.00826732-7.72855947 6.27144053-13.99173268 14-14 .5522847 0 1-.44771525 1-1s-.4477153-1-1-1z"/><path id="Shape" d="m16 4c-6.62444695.00716485-11.99283515 5.37555305-12 12 .00000001.5522847.44771526 1 1 1s.99999999-.4477153 1-1c.00606237-5.5203344 4.4796656-9.99393763 10-10 .5522847 0 1-.44771525 1-1s-.4477153-1-1-1z"/><path id="Shape" d="m16 8c-4.4162219.00495988-7.99504012 3.5837781-8 8 0 .5522847.44771525 1 1 1s1-.4477153 1-1c.0033074-3.3123376 2.6876624-5.9966926 6-6 .5522847 0 1-.44771525 1-1s-.4477153-1-1-1z"/></g></g></svg>